<svg width="253" height="170" viewBox="0 0 253 170" fill="none" xmlns="http://www.w3.org/2000/svg">
<path d="M5.112 161V145.28H0.264V143.12H12.264V145.28H7.488V161H5.112ZM29.5485 161.288C28.2845 161.288 27.1005 161.064 25.9965 160.616C24.8925 160.152 23.9245 159.504 23.0925 158.672C22.2765 157.84 21.6365 156.864 21.1725 155.744C20.7085 154.608 20.4765 153.376 20.4765 152.048C20.4765 150.704 20.7085 149.472 21.1725 148.352C21.6365 147.232 22.2765 146.256 23.0925 145.424C23.9245 144.592 24.8845 143.952 25.9725 143.504C27.0765 143.056 28.2685 142.832 29.5485 142.832C30.8285 142.832 32.0125 143.064 33.1005 143.528C34.2045 143.976 35.1645 144.616 35.9805 145.448C36.8125 146.264 37.4605 147.232 37.9245 148.352C38.4045 149.472 38.6445 150.704 38.6445 152.048C38.6445 153.376 38.4045 154.608 37.9245 155.744C37.4605 156.864 36.8125 157.84 35.9805 158.672C35.1645 159.504 34.2045 160.152 33.1005 160.616C32.0125 161.064 30.8285 161.288 29.5485 161.288ZM29.5485 159.104C30.5405 159.104 31.4445 158.928 32.2605 158.576C33.0765 158.208 33.7805 157.704 34.3725 157.064C34.9805 156.408 35.4445 155.656 35.7645 154.808C36.1005 153.944 36.2685 153.024 36.2685 152.048C36.2685 151.072 36.1005 150.16 35.7645 149.312C35.4445 148.464 34.9805 147.72 34.3725 147.08C33.7805 146.424 33.0765 145.92 32.2605 145.568C31.4445 145.2 30.5405 145.016 29.5485 145.016C28.5725 145.016 27.6765 145.2 26.8605 145.568C26.0445 145.92 25.3325 146.424 24.7245 147.08C24.1325 147.72 23.6685 148.464 23.3325 149.312C22.9965 150.16 22.8285 151.072 22.8285 152.048C22.8285 153.024 22.9965 153.944 23.3325 154.808C23.6685 155.656 24.1325 156.408 24.7245 157.064C25.3325 157.704 26.0445 158.208 26.8605 158.576C27.6765 158.928 28.5725 159.104 29.5485 159.104ZM51.6683 161V145.28H46.8203V143.12H58.8203V145.28H54.0443V161H51.6683ZM65.364 161L71.772 143.12H74.556L80.964 161H78.444L76.98 156.8H69.348L67.884 161H65.364ZM70.092 154.64H76.236L72.828 144.824H73.5L70.092 154.64ZM90.417 161V143.12H92.769V158.84H100.617V161H90.417ZM124.929 161V145.28H120.081V143.12H132.081V145.28H127.305V161H124.929ZM149.366 161.288C148.102 161.288 146.918 161.064 145.814 160.616C144.71 160.152 143.742 159.504 142.91 158.672C142.094 157.84 141.454 156.864 140.99 155.744C140.526 154.608 140.294 153.376 140.294 152.048C140.294 150.704 140.526 149.472 140.99 148.352C141.454 147.232 142.094 146.256 142.91 145.424C143.742 144.592 144.702 143.952 145.79 143.504C146.894 143.056 148.086 142.832 149.366 142.832C150.646 142.832 151.83 143.064 152.918 143.528C154.022 143.976 154.982 144.616 155.798 145.448C156.63 146.264 157.278 147.232 157.742 148.352C158.222 149.472 158.462 150.704 158.462 152.048C158.462 153.376 158.222 154.608 157.742 155.744C157.278 156.864 156.63 157.84 155.798 158.672C154.982 159.504 154.022 160.152 152.918 160.616C151.83 161.064 150.646 161.288 149.366 161.288ZM149.366 159.104C150.358 159.104 151.262 158.928 152.078 158.576C152.894 158.208 153.598 157.704 154.19 157.064C154.798 156.408 155.262 155.656 155.582 154.808C155.918 153.944 156.086 153.024 156.086 152.048C156.086 151.072 155.918 150.16 155.582 149.312C155.262 148.464 154.798 147.72 154.19 147.08C153.598 146.424 152.894 145.92 152.078 145.568C151.262 145.2 150.358 145.016 149.366 145.016C148.39 145.016 147.494 145.2 146.678 145.568C145.862 145.92 145.15 146.424 144.542 147.08C143.95 147.72 143.486 148.464 143.15 149.312C142.814 150.16 142.646 151.072 142.646 152.048C142.646 153.024 142.814 153.944 143.15 154.808C143.486 155.656 143.95 156.408 144.542 157.064C145.15 157.704 145.862 158.208 146.678 158.576C147.494 158.928 148.39 159.104 149.366 159.104ZM169.092 161V143.12H171.444V153.176L170.868 152.936L179.412 143.12H182.364L175.188 151.4L175.308 149.72L182.724 161H179.916L174.252 152.504L171.444 155.72V161H169.092ZM192.183 161V143.12H203.823V145.28H194.535V150.944H203.343V153.104H194.535V158.84H203.823V161H192.183ZM213.937 161V143.12H215.905L226.177 157.568L225.289 157.664V143.12H227.665V161H225.697L215.473 146.456L216.289 146.36V161H213.937ZM245 161.288C243.864 161.288 242.824 161.08 241.88 160.664C240.936 160.232 240.136 159.648 239.48 158.912C238.824 158.176 238.352 157.352 238.064 156.44L240.104 155.6C240.536 156.752 241.176 157.64 242.024 158.264C242.888 158.872 243.896 159.176 245.048 159.176C245.752 159.176 246.368 159.064 246.896 158.84C247.424 158.616 247.832 158.304 248.12 157.904C248.424 157.488 248.576 157.008 248.576 156.464C248.576 155.712 248.36 155.12 247.928 154.688C247.512 154.24 246.896 153.904 246.08 153.68L242.792 152.672C241.496 152.272 240.504 151.64 239.816 150.776C239.128 149.912 238.784 148.92 238.784 147.8C238.784 146.824 239.016 145.968 239.48 145.232C239.96 144.48 240.616 143.896 241.448 143.48C242.296 143.048 243.256 142.832 244.328 142.832C245.4 142.832 246.368 143.024 247.232 143.408C248.112 143.792 248.856 144.312 249.464 144.968C250.072 145.608 250.52 146.344 250.808 147.176L248.792 148.016C248.408 147.008 247.832 146.248 247.064 145.736C246.296 145.208 245.392 144.944 244.352 144.944C243.712 144.944 243.144 145.056 242.648 145.28C242.168 145.488 241.792 145.8 241.52 146.216C241.264 146.616 241.136 147.096 241.136 147.656C241.136 148.312 241.344 148.896 241.76 149.408C242.176 149.92 242.808 150.312 243.656 150.584L246.656 151.472C248.064 151.904 249.128 152.52 249.848 153.32C250.568 154.12 250.928 155.112 250.928 156.296C250.928 157.272 250.672 158.136 250.16 158.888C249.664 159.64 248.968 160.232 248.072 160.664C247.192 161.08 246.168 161.288 245 161.288Z" fill="#484848"/>
<path d="M20.44 111V91.352H15.8V87.16H25.4V111H20.44ZM54.9607 111V87.16H65.0407C66.6834 87.16 68.0914 87.4373 69.2647 87.992C70.4381 88.5467 71.3341 89.3467 71.9527 90.392C72.5714 91.416 72.8807 92.664 72.8807 94.136C72.8807 95.1813 72.5927 96.184 72.0167 97.144C71.4407 98.0827 70.4914 98.872 69.1687 99.512V97.08C70.4274 97.5707 71.3981 98.1573 72.0807 98.84C72.7634 99.5227 73.2327 100.269 73.4887 101.08C73.7447 101.869 73.8727 102.701 73.8727 103.576C73.8727 105.923 73.0941 107.747 71.5367 109.048C69.9794 110.349 67.8141 111 65.0407 111H54.9607ZM59.9207 106.68H65.6167C66.6194 106.68 67.4194 106.392 68.0167 105.816C68.6141 105.24 68.9127 104.493 68.9127 103.576C68.9127 102.637 68.6141 101.88 68.0167 101.304C67.4194 100.728 66.6194 100.44 65.6167 100.44H59.9207V106.68ZM59.9207 96.12H65.3927C66.1607 96.12 66.7687 95.9067 67.2167 95.48C67.6861 95.032 67.9207 94.4453 67.9207 93.72C67.9207 92.9947 67.6861 92.4187 67.2167 91.992C66.7687 91.544 66.1607 91.32 65.3927 91.32H59.9207V96.12ZM86.4945 111V87.16H91.4545V111H86.4945ZM105.122 111V87.16H110.082V106.68H120.162V111H105.122ZM132.062 111V87.16H137.022V106.68H147.102V111H132.062ZM159.002 111V87.16H163.962V111H159.002ZM189.566 111.384C187.774 111.384 186.11 111.075 184.574 110.456C183.038 109.837 181.694 108.973 180.542 107.864C179.411 106.733 178.526 105.421 177.886 103.928C177.246 102.435 176.926 100.813 176.926 99.064C176.926 97.3147 177.235 95.6933 177.854 94.2C178.494 92.7067 179.379 91.4053 180.51 90.296C181.662 89.1867 183.006 88.3227 184.542 87.704C186.078 87.0853 187.752 86.776 189.566 86.776C191.379 86.776 193.054 87.0853 194.59 87.704C196.126 88.3227 197.459 89.1867 198.59 90.296C199.742 91.4053 200.627 92.7067 201.246 94.2C201.886 95.6933 202.206 97.3147 202.206 99.064C202.206 100.813 201.886 102.435 201.246 103.928C200.606 105.421 199.71 106.733 198.558 107.864C197.427 108.973 196.094 109.837 194.558 110.456C193.022 111.075 191.358 111.384 189.566 111.384ZM189.566 106.904C190.654 106.904 191.656 106.712 192.574 106.328C193.512 105.944 194.334 105.411 195.038 104.728C195.742 104.024 196.286 103.192 196.67 102.232C197.054 101.272 197.246 100.216 197.246 99.064C197.246 97.912 197.054 96.8667 196.67 95.928C196.286 94.968 195.742 94.136 195.038 93.432C194.334 92.728 193.512 92.1947 192.574 91.832C191.656 91.448 190.654 91.256 189.566 91.256C188.478 91.256 187.464 91.448 186.526 91.832C185.608 92.1947 184.798 92.728 184.094 93.432C183.39 94.136 182.846 94.968 182.462 95.928C182.078 96.8667 181.886 97.912 181.886 99.064C181.886 100.216 182.078 101.272 182.462 102.232C182.846 103.192 183.39 104.024 184.094 104.728C184.798 105.411 185.608 105.944 186.526 106.328C187.464 106.712 188.478 106.904 189.566 106.904ZM215.163 111V87.16H218.971L231.771 104.024L229.723 104.504V87.16H234.683V111H230.843L218.267 94.008L220.123 93.528V111H215.163Z" fill="#4527B3"/>
<path d="M139.125 21V19.6875C139.125 13.8047 130.266 9.375 118.5 9.375C106.734 9.375 97.875 13.8047 97.875 19.6875V29.0625C97.875 33.9609 104.016 37.8516 112.875 39.0234V40.3125C112.875 46.1953 121.734 50.625 133.5 50.625C145.266 50.625 154.125 46.1953 154.125 40.3125V30.9375C154.125 26.0859 148.172 22.1953 139.125 21ZM112.875 35.2031V29.6484C114.74 29.8882 116.619 30.0056 118.5 30C120.381 30.0056 122.26 29.8882 124.125 29.6484V35.2031C122.264 35.4931 120.383 35.6342 118.5 35.625C116.617 35.6342 114.736 35.4931 112.875 35.2031ZM135.375 25.7578V29.0625C135.375 31.0312 132.469 33.1406 127.875 34.4297V28.9453C130.898 28.2188 133.453 27.1172 135.375 25.7578ZM101.625 29.0625V25.7578C103.547 27.1172 106.102 28.2188 109.125 28.9453V34.4297C104.531 33.1406 101.625 31.0312 101.625 29.0625ZM116.625 40.3125V39.3281L118.5 39.375C119.422 39.375 120.312 39.3516 121.172 39.3047C122.109 39.6328 123.094 39.9141 124.125 40.1719V45.6797C119.531 44.3906 116.625 42.2812 116.625 40.3125ZM127.875 46.4531V40.875C129.74 41.1197 131.619 41.2449 133.5 41.25C135.381 41.2556 137.26 41.1382 139.125 40.8984V46.4531C135.396 47.0156 131.604 47.0156 127.875 46.4531ZM142.875 45.6797V40.1953C145.898 39.4688 148.453 38.3672 150.375 37.0078V40.3125C150.375 42.2812 147.469 44.3906 142.875 45.6797Z" fill="black"/>
</svg>
