<svg width="40" height="40" viewBox="0 0 40 40" fill="none" xmlns="http://www.w3.org/2000/svg">
<path d="M15.3332 35.6667H7.99984V39.3334H4.33317V35.6667H2.49984C2.01361 35.6667 1.54729 35.4735 1.20347 35.1297C0.859658 34.7859 0.666504 34.3196 0.666504 33.8334V6.33336C0.666504 5.84713 0.859658 5.38081 1.20347 5.03699C1.54729 4.69318 2.01361 4.50002 2.49984 4.50002H15.3332V1.91502C15.3332 1.78196 15.3623 1.65051 15.4182 1.52979C15.4742 1.40908 15.5558 1.302 15.6573 1.21599C15.7589 1.12999 15.8779 1.06712 16.0062 1.03175C16.1345 0.996384 16.2689 0.989368 16.4002 1.01119L35.8005 4.24519C36.2286 4.31636 36.6176 4.53708 36.8982 4.86808C37.1788 5.19908 37.333 5.6189 37.3332 6.05286V10H39.1665V13.6667H37.3332V26.5H39.1665V30.1667H37.3332V34.1139C37.333 34.5478 37.1788 34.9676 36.8982 35.2986C36.6176 35.6296 36.2286 35.8504 35.8005 35.9215L33.6665 36.2772V39.3334H29.9998V36.8895L16.4002 39.1555C16.2689 39.1773 16.1345 39.1703 16.0062 39.135C15.8779 39.0996 15.7589 39.0367 15.6573 38.9507C15.5558 38.8647 15.4742 38.7576 15.4182 38.6369C15.3623 38.5162 15.3332 38.3848 15.3332 38.2517V35.6667ZM18.9998 35.0067L33.6665 32.561V7.60569L18.9998 5.16186V35.0049V35.0067ZM27.2498 24.6667C25.7318 24.6667 24.4998 22.6134 24.4998 20.0834C24.4998 17.5534 25.7318 15.5 27.2498 15.5C28.7678 15.5 29.9998 17.5534 29.9998 20.0834C29.9998 22.6134 28.7678 24.6667 27.2498 24.6667Z" fill="#4527B3"/>
</svg>
